<svg width="100" height="100" viewBox="0 0 100 100" fill="none" xmlns="http://www.w3.org/2000/svg">
<g clip-path="url(#clip0_28_5296)">
<rect opacity="0.0229128" x="0.5" y="0.5" width="99" height="99" stroke="#2B2B2B"/>
<g clip-path="url(#clip1_28_5296)">
<path fill-rule="evenodd" clip-rule="evenodd" d="M71.9873 33.9957C70.8428 33.9957 69.7012 34.1191 68.5851 34.3631C65.0184 26.0203 56.6922 20.4551 47.6853 20.4551C36.4434 20.4551 27.0962 28.4503 25.2355 39.5552C25.2086 39.5538 25.1816 39.5538 25.1561 39.5538C17.8057 39.5538 11.8252 45.5942 11.8252 53.0163C11.8252 60.437 17.8057 66.4746 25.1561 66.4746H71.9873C80.8524 66.4746 88.0652 59.1887 88.0652 50.2358C88.0652 41.2816 80.8524 33.9957 71.9873 33.9957V33.9957ZM84.8317 50.2355C84.8317 57.3952 79.0696 63.22 71.9872 63.22H25.156C19.5883 63.22 15.0586 58.6421 15.0586 53.0159C15.0586 47.3869 19.5883 42.8077 25.156 42.8077C25.5276 42.8077 25.9332 42.836 26.4338 42.8984L28.0761 43.1041L28.242 41.4472C29.256 31.334 37.6148 23.709 47.6853 23.709C55.9221 23.709 63.3151 28.9904 66.0834 36.8509L66.6052 38.3348L68.0958 37.8567C69.3608 37.4538 70.6698 37.2496 71.9872 37.2496C79.0696 37.2496 84.8317 43.0744 84.8317 50.2355V50.2355Z" fill="#31384C"/>
<path fill-rule="evenodd" clip-rule="evenodd" d="M57.1807 76.7986C57.1807 78.4924 55.8093 79.8642 54.1174 79.8642C52.4255 79.8642 51.0527 78.4924 51.0527 76.7986C51.0527 75.1062 52.4255 73.7344 54.1174 73.7344C55.8093 73.7344 57.1807 75.1062 57.1807 76.7986" fill="#31384C"/>
<path fill-rule="evenodd" clip-rule="evenodd" d="M77.3584 75.782C77.3584 77.4758 75.9856 78.8476 74.2937 78.8476C72.6018 78.8476 71.229 77.4758 71.229 75.782C71.229 74.0896 72.6018 72.7178 74.2937 72.7178C75.9856 72.7178 77.3584 74.0896 77.3584 75.782" fill="#31384C"/>
<path fill-rule="evenodd" clip-rule="evenodd" d="M36.9444 77.112C36.9444 78.8059 35.573 80.1776 33.8811 80.1776C32.1878 80.1776 30.8164 78.8059 30.8164 77.112C30.8164 75.4196 32.1878 74.0479 33.8811 74.0479C35.573 74.0479 36.9444 75.4196 36.9444 77.112" fill="#31384C"/>
</g>
</g>
<defs>
<clipPath id="clip0_28_5296">
<rect width="100" height="100" fill="white"/>
</clipPath>
<clipPath id="clip1_28_5296">
<rect width="78" height="61" fill="white" transform="translate(11 20)"/>
</clipPath>
</defs>
</svg>
