<svg width="20" height="20" viewBox="0 0 20 20" fill="none" xmlns="http://www.w3.org/2000/svg">
<g clip-path="url(#clip0_118_4677)">
<mask id="mask0_118_4677" style="mask-type:luminance" maskUnits="userSpaceOnUse" x="-4" y="-4" width="28" height="28">
<path d="M-3.33366 -3.44446H23.333V23.2222H-3.33366V-3.44446Z" fill="white"/>
</mask>
<g mask="url(#mask0_118_4677)">
<path opacity="0.0229128" d="M-3.20029 -3.3111H23.1997V23.0889H-3.20029V-3.3111Z" stroke="#2B2B2B"/>
<path fill-rule="evenodd" clip-rule="evenodd" d="M10.2581 17.896C12.8657 18.1638 15.0718 17.3412 16.9007 15.5124C17.3369 15.0762 17.7188 14.5863 18.1174 14.1141C18.2933 13.905 18.3051 13.7499 18.1975 13.5869C18.0906 13.426 17.9122 13.3879 17.657 13.4507C15.8552 13.8932 14.0705 13.8635 12.3748 13.0753C9.6349 11.8014 8.08162 9.62901 7.69794 6.67221C7.4737 4.94197 7.91754 3.33199 8.81924 1.84101C8.84764 1.7945 8.87564 1.74799 8.90487 1.70189C9.00663 1.54098 9.00959 1.37965 8.88666 1.23173C8.76287 1.08338 8.59668 1.05698 8.42159 1.12319C5.80807 2.10922 3.76642 3.74056 2.80068 6.39397C1.58951 9.72162 2.26103 12.7207 4.75714 15.2727C5.98271 16.5261 7.497 17.3123 9.21308 17.7108C9.55732 17.7908 9.90959 17.8352 10.2581 17.896ZM16.965 14.2774C16.8065 14.45 16.6678 14.608 16.5216 14.7584C15.5287 15.7822 14.3807 16.5671 12.9576 16.8591C10.5247 17.3582 8.28036 16.8667 6.27175 15.4394C3.3958 13.3961 2.44068 10.0056 3.46532 6.81709C4.16186 4.65061 5.6613 3.16927 7.68556 2.1669C7.70295 2.15853 7.725 2.15895 7.74322 2.15559C6.46594 5.2553 6.68722 8.21837 8.70767 10.9091C10.7408 13.617 13.5714 14.6306 16.965 14.2774Z" fill="#31384C"/>
</g>
</g>
<defs>
<clipPath id="clip0_118_4677">
<rect width="20" height="20" fill="white"/>
</clipPath>
</defs>
</svg>
