<svg width="100" height="100" viewBox="0 0 100 100" fill="none" xmlns="http://www.w3.org/2000/svg">
<g clip-path="url(#clip0_28_4648)">
<rect opacity="0.0229128" x="-0.5" y="0.5" width="99" height="99" transform="matrix(-1 0 0 1 99 0)" stroke="#2B2B2B"/>
<path fill-rule="evenodd" clip-rule="evenodd" d="M50.9681 80.0265C60.7466 81.0306 69.0196 77.9459 75.8778 71.0882C77.5136 69.4523 78.946 67.6153 80.4404 65.8443C81.1001 65.0602 81.1446 64.4788 80.7408 63.8675C80.3402 63.2641 79.6709 63.1211 78.7139 63.3568C71.9575 65.0162 65.2647 64.9046 58.9057 61.9488C48.6312 57.1716 42.8064 49.0253 41.3676 37.9373C40.5267 31.4489 42.1911 25.4115 45.5725 19.8203C45.679 19.6459 45.784 19.4715 45.8936 19.2986C46.2752 18.6952 46.2863 18.0902 45.8253 17.5355C45.3611 16.9792 44.7379 16.8802 44.0813 17.1285C34.2806 20.8261 26.6244 26.9436 23.0029 36.8939C18.461 49.3726 20.9792 60.6193 30.3396 70.1893C34.9355 74.8895 40.6141 77.8375 47.0494 79.3319C48.3403 79.6321 49.6613 79.7986 50.9681 80.0265V80.0265ZM76.1191 66.4567C75.5246 67.1041 75.0047 67.6966 74.4563 68.2607C70.7331 72.0997 66.4281 75.043 61.0913 76.1383C51.9678 78.0099 43.5517 76.1666 36.0194 70.8143C25.2346 63.152 21.6529 50.4376 25.4953 38.4806C28.1073 30.3563 33.7302 24.8013 41.3212 21.0424C41.3864 21.011 41.4691 21.0126 41.5374 21C36.7476 32.6239 37.5774 43.7354 45.1541 53.8256C52.7785 63.9801 63.3932 67.7814 76.1191 66.4567V66.4567Z" fill="#FFFFFE"/>
</g>
<defs>
<clipPath id="clip0_28_4648">
<rect width="100" height="100" fill="white" transform="matrix(-1 0 0 1 100 0)"/>
</clipPath>
</defs>
</svg>
