<svg width="100" height="100" viewBox="0 0 100 100" fill="none" xmlns="http://www.w3.org/2000/svg">
<g clip-path="url(#clip0_28_5258)">
<g clip-path="url(#clip1_28_5258)">
<rect opacity="0.0229128" x="-0.5" y="0.5" width="99" height="99" transform="matrix(-1 0 0 1 99 0)" stroke="#2B2B2B"/>
</g>
<g clip-path="url(#clip2_28_5258)">
<path fill-rule="evenodd" clip-rule="evenodd" d="M84.408 66.8071H12.6495C11.6171 66.8071 10.7724 66.0146 10.7724 65.0444C10.7724 64.0758 11.6171 63.2833 12.6495 63.2833H84.408C85.4404 63.2833 86.2852 64.0758 86.2852 65.0444C86.2852 66.0146 85.4404 66.8071 84.408 66.8071" fill="#31384C"/>
<path fill-rule="evenodd" clip-rule="evenodd" d="M67.6944 78.1918H12.6493C11.6169 78.1918 10.7722 77.3993 10.7722 76.4291C10.7722 75.4605 11.6169 74.668 12.6493 74.668H67.6944C68.7268 74.668 69.5732 75.4605 69.5732 76.4291C69.5732 77.3993 68.7268 78.1918 67.6944 78.1918" fill="#31384C"/>
<path fill-rule="evenodd" clip-rule="evenodd" d="M27.2511 23.68C28.4243 23.68 29.594 23.8017 30.7377 24.04C34.3946 15.8433 42.9286 10.375 52.1613 10.375C63.683 10.375 73.2651 18.2317 75.1717 29.1417C75.1996 29.1417 75.2256 29.1417 75.2534 29.1417C82.7863 29.1417 88.9165 35.075 88.9165 42.3683C88.9165 49.6617 82.7863 55.5933 75.2534 55.5933H27.2511C18.1644 55.5933 10.7723 48.435 10.7723 39.6367C10.7723 30.8383 18.1644 23.68 27.2511 23.68V23.68ZM14.0869 39.6363C14.0869 46.673 19.9912 52.3963 27.2511 52.3963H75.2535C80.9596 52.3963 85.6021 47.898 85.6021 42.368C85.6021 36.838 80.9596 32.338 75.2535 32.338C74.8729 32.338 74.4557 32.3663 73.943 32.428L72.2588 32.6296L72.0902 31.0013C71.0508 21.0646 62.4821 13.5713 52.1613 13.5713C43.7177 13.5713 36.1397 18.7613 33.3031 26.4863L32.7661 27.9446L31.24 27.4746C29.9434 27.078 28.6016 26.8763 27.2511 26.8763C19.9912 26.8763 14.0869 32.5996 14.0869 39.6363V39.6363Z" fill="#31384C"/>
<path fill-rule="evenodd" clip-rule="evenodd" d="M49.5472 89.1205H12.6494C11.617 89.1205 10.7723 88.3276 10.7723 87.3586C10.7723 86.3895 11.617 85.5967 12.6494 85.5967H49.5472C50.5813 85.5967 51.426 86.3895 51.426 87.3586C51.426 88.3276 50.5813 89.1205 49.5472 89.1205" fill="#31384C"/>
</g>
</g>
<defs>
<clipPath id="clip0_28_5258">
<rect width="100" height="100" fill="white" transform="matrix(-1 0 0 1 100 0)"/>
</clipPath>
<clipPath id="clip1_28_5258">
<rect width="100" height="100" fill="white" transform="matrix(-1 0 0 1 100 0)"/>
</clipPath>
<clipPath id="clip2_28_5258">
<rect width="79" height="80" fill="white" transform="matrix(-1 0 0 1 89 10)"/>
</clipPath>
</defs>
</svg>
