<svg width="100" height="100" viewBox="0 0 100 100" fill="none" xmlns="http://www.w3.org/2000/svg">
<g clip-path="url(#clip0_28_5271)">
<g clip-path="url(#clip1_28_5271)">
<rect opacity="0.0229128" x="-0.5" y="0.5" width="99" height="99" transform="matrix(-1 0 0 1 99 0)" stroke="#2B2B2B"/>
</g>
<path fill-rule="evenodd" clip-rule="evenodd" d="M80.949 60.2294H87.5804C91.9033 60.2294 95.4199 56.6956 95.4199 52.351C95.4199 48.005 91.9033 44.4697 87.5804 44.4697C87.2924 44.4697 86.9763 44.4932 86.5879 44.5402L85.3118 44.6988L85.1848 43.421C84.3961 35.6132 77.9065 29.7264 70.0862 29.7264C66.6908 29.7264 63.4859 30.8852 60.8983 32.871C60.34 32.2394 59.7552 31.6417 59.1378 31.085C62.2098 28.6469 66.0572 27.2148 70.0862 27.2148C78.8163 27.2148 86.0739 33.3865 87.5184 41.9596C87.539 41.9596 87.5597 41.9596 87.5804 41.9596C93.2872 41.9596 97.9307 46.6214 97.9307 52.351C97.9307 58.0792 93.2872 62.741 87.5804 62.741H80.8899C80.949 62.221 80.9904 61.6938 80.9904 61.1562C80.9904 60.8433 80.9697 60.5364 80.949 60.2294" fill="#31384C"/>
<path fill-rule="evenodd" clip-rule="evenodd" d="M19.0687 41.9842C20.1823 41.9842 21.293 42.1032 22.3785 42.3396C25.8508 34.2674 33.9532 28.8829 42.7202 28.8829C53.6598 28.8829 62.7576 36.6188 64.5683 47.3627C64.5949 47.3627 64.62 47.3627 64.6451 47.3627C71.7993 47.3627 77.6184 53.2054 77.6184 60.3862C77.6184 67.5669 71.7993 73.4081 64.6451 73.4081H19.0687C10.4406 73.4081 3.42075 66.3596 3.42075 57.6969C3.42075 49.0327 10.4406 41.9842 19.0687 41.9842V41.9842ZM6.56807 57.6969C6.56807 64.625 12.1759 70.2606 19.0687 70.2606H64.6451C70.0639 70.2606 74.4726 65.8323 74.4726 60.3862C74.4726 54.94 70.0639 50.5103 64.6451 50.5103C64.2847 50.5103 63.8889 50.5382 63.4015 50.5984L61.8035 50.7967L61.6425 49.1943C60.6545 39.4095 52.5196 32.0305 42.7202 32.0305C34.7035 32.0305 27.5079 37.1417 24.814 44.7469L24.3059 46.1833L22.8556 45.7207C21.6238 45.33 20.3507 45.1332 19.0687 45.1332C12.1759 45.1332 6.56807 50.7688 6.56807 57.6969V57.6969Z" fill="#31384C"/>
</g>
<defs>
<clipPath id="clip0_28_5271">
<rect width="100" height="100" fill="white" transform="matrix(-1 0 0 1 100 0)"/>
</clipPath>
<clipPath id="clip1_28_5271">
<rect width="100" height="100" fill="white" transform="matrix(-1 0 0 1 100 0)"/>
</clipPath>
</defs>
</svg>
