<svg width="100" height="100" viewBox="0 0 100 100" fill="none" xmlns="http://www.w3.org/2000/svg">
<g clip-path="url(#clip0_28_5305)">
<rect opacity="0.0229128" x="0.5" y="0.5" width="99" height="99" stroke="#2B2B2B"/>
<path fill-rule="evenodd" clip-rule="evenodd" d="M70.3451 31.9794C69.1874 31.9794 68.0311 32.1031 66.9007 32.3463C63.2868 23.9837 54.8553 18.4043 45.7315 18.4043C34.3469 18.4043 24.8798 26.4199 22.9939 37.5517C22.968 37.5517 22.9408 37.5517 22.9149 37.5517C15.4702 37.5517 9.41309 43.6061 9.41309 51.0471C9.41309 58.4882 15.4702 64.5412 22.9149 64.5412H70.3451C79.3238 64.5412 86.6291 57.2367 86.6291 48.2596C86.6291 39.2825 79.3238 31.9794 70.3451 31.9794V31.9794ZM83.3542 48.2592C83.3542 55.4385 77.5197 61.2782 70.3451 61.2782H22.9149C17.2757 61.2782 12.688 56.6887 12.688 51.0467C12.688 45.4034 17.2757 40.8124 22.9149 40.8124C23.2912 40.8124 23.702 40.8423 24.2076 40.9034L25.8724 41.1111L26.039 39.4499C27.0674 29.3109 35.5334 21.665 45.7315 21.665C54.0754 21.665 61.5631 26.96 64.3655 34.8419L64.8955 36.3296L66.4051 35.8503C67.6864 35.4464 69.0121 35.2416 70.3451 35.2416C77.5197 35.2416 83.3542 41.0812 83.3542 48.2592V48.2592Z" fill="#31384C"/>
<path fill-rule="evenodd" clip-rule="evenodd" d="M23.1437 73.5197C24.5226 76.0129 25.9015 78.5046 27.2819 80.9978C28.2414 82.7329 30.9216 81.1841 29.9607 79.4476C28.5818 76.9544 27.2029 74.4612 25.8225 71.9681C24.8631 70.233 22.1828 71.7818 23.1437 73.5197" fill="#31384C"/>
<path fill-rule="evenodd" clip-rule="evenodd" d="M38.5168 73.5197C39.8957 76.0129 41.2746 78.5046 42.6535 80.9978C43.6144 82.7329 46.2947 81.1841 45.3337 79.4476C43.9548 76.9544 42.5759 74.4612 41.1956 71.9681C40.2361 70.233 37.5544 71.7818 38.5168 73.5197" fill="#31384C"/>
<path fill-rule="evenodd" clip-rule="evenodd" d="M54.6744 73.5197C56.0548 76.0129 57.4337 78.5046 58.8126 80.9978C59.7721 82.7329 62.4538 81.1841 61.4928 79.4476C60.1139 76.9544 58.7336 74.4612 57.3547 71.9681C56.3952 70.233 53.7135 71.7818 54.6744 73.5197" fill="#31384C"/>
<path fill-rule="evenodd" clip-rule="evenodd" d="M70.2907 73.5197C71.6696 76.0129 73.05 78.5046 74.4289 80.9978C75.3884 82.7329 78.07 81.1841 77.1091 79.4476C75.7288 76.9544 74.3499 74.4612 72.971 71.9681C72.01 70.233 69.3298 71.7818 70.2907 73.5197" fill="#31384C"/>
</g>
<defs>
<clipPath id="clip0_28_5305">
<rect width="100" height="100" fill="white"/>
</clipPath>
</defs>
</svg>
