<svg width="100" height="100" viewBox="0 0 100 100" fill="none" xmlns="http://www.w3.org/2000/svg">
<g clip-path="url(#clip0_28_5186)">
<g clip-path="url(#clip1_28_5186)">
<rect opacity="0.0229128" x="0.5" y="0.5" width="99" height="99" stroke="#2B2B2B"/>
</g>
<path fill-rule="evenodd" clip-rule="evenodd" d="M69.0535 26.7374C67.9251 26.7374 66.7981 26.8599 65.6963 27.1019C62.1739 18.825 53.9559 13.3037 45.0631 13.3037C33.9653 13.3037 24.7379 21.2359 22.9011 32.253C22.8745 32.2516 22.8493 32.2516 22.8227 32.2516C15.5665 32.2516 9.66406 38.243 9.66406 45.6065C9.66406 52.9701 15.5665 58.96 22.8227 58.96H69.0535C77.8049 58.96 84.9253 51.7316 84.9253 42.848C84.9253 33.9659 77.8049 26.7374 69.0535 26.7374V26.7374ZM81.7332 42.8484C81.7332 49.953 76.045 55.7318 69.0534 55.7318H22.8226C17.3262 55.7318 12.856 51.1901 12.856 45.6069C12.856 40.0223 17.3262 35.4792 22.8226 35.4792C23.1894 35.4792 23.5898 35.5087 24.084 35.5707L25.7066 35.7747L25.869 34.1309C26.8714 24.0975 35.1216 16.5312 45.063 16.5312C53.1942 16.5312 60.4938 21.771 63.2252 29.5709L63.7418 31.043L65.2118 30.5687C66.4606 30.169 67.7528 29.9664 69.0534 29.9664C76.045 29.9664 81.7332 35.7452 81.7332 42.8484V42.8484Z" fill="#31384C"/>
<path fill-rule="evenodd" clip-rule="evenodd" d="M53.4375 68.1936C53.4375 69.8726 52.0823 71.235 50.4121 71.235C48.7419 71.235 47.3867 69.8726 47.3867 68.1936C47.3867 66.5145 48.7419 65.1522 50.4121 65.1522C52.0823 65.1522 53.4375 66.5145 53.4375 68.1936" fill="#31384C"/>
<path fill-rule="evenodd" clip-rule="evenodd" d="M59.4869 82.7898C59.4869 84.4702 58.1331 85.8312 56.4629 85.8312C54.7913 85.8312 53.4375 84.4702 53.4375 82.7898C53.4375 81.1107 54.7913 79.7498 56.4629 79.7498C58.1331 79.7498 59.4869 81.1107 59.4869 82.7898" fill="#31384C"/>
<path fill-rule="evenodd" clip-rule="evenodd" d="M74.3548 68.1936C74.3548 69.8726 73.001 71.235 71.3294 71.235C69.6592 71.235 68.3054 69.8726 68.3054 68.1936C68.3054 66.5145 69.6592 65.1522 71.3294 65.1522C73.001 65.1522 74.3548 66.5145 74.3548 68.1936" fill="#31384C"/>
<path fill-rule="evenodd" clip-rule="evenodd" d="M79.1947 82.7898C79.1947 84.4702 77.8409 85.8312 76.1693 85.8312C74.4991 85.8312 73.1453 84.4702 73.1453 82.7898C73.1453 81.1107 74.4991 79.7498 76.1693 79.7498C77.8409 79.7498 79.1947 81.1107 79.1947 82.7898" fill="#31384C"/>
<path fill-rule="evenodd" clip-rule="evenodd" d="M34.4605 69.5123C34.4605 71.1913 33.1053 72.5537 31.4351 72.5537C29.7649 72.5537 28.4097 71.1913 28.4097 69.5123C28.4097 67.8333 29.7649 66.4709 31.4351 66.4709C33.1053 66.4709 34.4605 67.8333 34.4605 69.5123" fill="#31384C"/>
<path fill-rule="evenodd" clip-rule="evenodd" d="M40.5098 84.1085C40.5098 85.7875 39.156 87.1499 37.4844 87.1499C35.8142 87.1499 34.4604 85.7875 34.4604 84.1085C34.4604 82.4295 35.8142 81.0685 37.4844 81.0685C39.156 81.0685 40.5098 82.4295 40.5098 84.1085" fill="#31384C"/>
</g>
<defs>
<clipPath id="clip0_28_5186">
<rect width="100" height="100" fill="white"/>
</clipPath>
<clipPath id="clip1_28_5186">
<rect width="100" height="100" fill="white"/>
</clipPath>
</defs>
</svg>
