<svg width="62" height="62" viewBox="0 0 62 62" fill="none" xmlns="http://www.w3.org/2000/svg">
<path d="M43.7445 56C42.3005 56 40.8993 55.7169 39.5794 55.1587C38.3052 54.6198 37.161 53.8484 36.1788 52.866C35.1965 51.8838 34.4252 50.7397 33.8861 49.4654C33.328 48.1457 33.0449 46.7444 33.0449 45.3005C33.0449 43.5897 33.459 41.8878 34.2422 40.3788C34.9163 39.0799 35.8646 37.9186 37.0028 36.9928V11.0987C37.0029 8.28724 39.2901 6 42.1016 6H45.3875C48.1989 6 50.4862 8.28724 50.4862 11.0987V36.9928C51.6244 37.9185 52.5727 39.0798 53.2468 40.3788C54.0301 41.8878 54.4441 43.5898 54.4441 45.3005C54.4441 46.7444 54.1611 48.1458 53.6028 49.4654C53.0638 50.7397 52.2926 51.8838 51.3102 52.866C50.328 53.8484 49.1838 54.6197 47.9095 55.1587C46.5899 55.7169 45.1886 56 43.7445 56ZM42.1016 8.0998C40.4481 8.0998 39.1028 9.4451 39.1028 11.0987V37.5082C39.1028 37.843 38.9431 38.1578 38.6729 38.3555C36.4638 39.9718 35.1449 42.5681 35.1449 45.3004C35.1449 50.0422 39.0027 53.9 43.7446 53.9C48.4865 53.9 52.3443 50.0421 52.3443 45.3004C52.3443 42.5681 51.0254 39.9717 48.8162 38.3555C48.546 38.1578 48.3863 37.843 48.3863 37.5082V11.0987C48.3863 9.4451 47.041 8.0998 45.3875 8.0998H42.1016Z" fill="#D0D0D0"/>
<path d="M45.9738 39.1658V16.2423C45.9738 15.3323 45.2361 14.5947 44.3262 14.5947H43.1628C42.2529 14.5947 41.5152 15.3323 41.5152 16.2423V39.1658C39.009 40.0767 37.2188 42.4796 37.2188 45.3006C37.2188 48.9047 40.1404 51.8264 43.7445 51.8264C47.3486 51.8264 50.2703 48.9047 50.2703 45.3006C50.2702 42.4796 48.4801 40.0767 45.9738 39.1658ZM42.2991 43.2694C41.811 43.7023 41.4952 44.2721 41.3859 44.9171C41.3285 45.2569 41.3323 45.5989 41.3975 45.9332C41.481 46.3621 41.201 46.7777 40.7719 46.8613C40.7208 46.8714 40.6699 46.8762 40.6197 46.8762C40.2486 46.8762 39.9174 46.614 39.8437 46.236C39.7419 45.7139 39.7358 45.1812 39.8253 44.653C39.993 43.6625 40.4986 42.7506 41.2488 42.0852C41.5758 41.7952 42.076 41.8251 42.3661 42.1521C42.656 42.4792 42.6261 42.9793 42.2991 43.2694Z" fill="#D0D0D0"/>
<path d="M33.0471 13.6839C33.0471 14.1592 32.6618 14.5447 32.1863 14.5447H30.4168C29.9413 14.5447 29.5559 14.1592 29.5559 13.6839V12.7459C29.5559 12.2704 29.9413 11.885 30.4168 11.885H32.1863C32.6618 11.885 33.0471 12.2703 33.0471 12.7459V13.6839Z" fill="#D0D0D0"/>
<path d="M33.0471 19.2957C33.0471 19.7712 32.6618 20.1567 32.1863 20.1567H30.4168C29.9413 20.1567 29.5559 19.7713 29.5559 19.2957V18.3578C29.5559 17.8823 29.9413 17.4969 30.4168 17.4969H32.1863C32.6618 17.4969 33.0471 17.8822 33.0471 18.3578V19.2957Z" fill="#D0D0D0"/>
<path d="M33.0471 24.9076C33.0471 25.3831 32.6618 25.7685 32.1863 25.7685H30.4168C29.9413 25.7685 29.5559 25.3832 29.5559 24.9076V23.9697C29.5559 23.4943 29.9413 23.1087 30.4168 23.1087H32.1863C32.6618 23.1087 33.0471 23.4942 33.0471 23.9697V24.9076Z" fill="#D0D0D0"/>
<path d="M33.0471 30.5195C33.0471 30.9949 32.6618 31.3805 32.1863 31.3805H30.4168C29.9413 31.3805 29.5559 30.995 29.5559 30.5195V29.5816C29.5559 29.1061 29.9413 28.7208 30.4168 28.7208H32.1863C32.6618 28.7208 33.0471 29.1061 33.0471 29.5816V30.5195Z" fill="#D0D0D0"/>
<path d="M33.0471 36.1313C33.0471 36.607 32.6618 36.9924 32.1863 36.9924H30.4168C29.9413 36.9924 29.5559 36.6071 29.5559 36.1313V35.1935C29.5559 34.7182 29.9413 34.3327 30.4168 34.3327H32.1863C32.6618 34.3327 33.0471 34.7182 33.0471 35.1935V36.1313Z" fill="#D0D0D0"/>
</svg>
