<svg width="20" height="20" viewBox="0 0 20 20" fill="none" xmlns="http://www.w3.org/2000/svg">
<g clip-path="url(#clip0_28_4686)">
<mask id="mask0_28_4686" style="mask-type:luminance" maskUnits="userSpaceOnUse" x="-4" y="-4" width="28" height="28">
<path d="M23.6365 -3.63635H-3.63623V23.6364H23.6365V-3.63635Z" fill="white"/>
</mask>
<g mask="url(#mask0_28_4686)">
<path opacity="0.0229128" d="M23.5 -3.5H-3.5V23.5H23.5V-3.5Z" stroke="#2B2B2B"/>
<path fill-rule="evenodd" clip-rule="evenodd" d="M16.8046 16.7803L13.8269 14.0357C13.6421 13.8655 13.6329 13.5775 13.807 13.3962C13.9812 13.2152 14.2754 13.2066 14.4606 13.3771L17.4383 16.1214C17.6231 16.2919 17.6319 16.5795 17.4577 16.7609C17.2839 16.9422 16.9898 16.9509 16.8046 16.7803Z" fill="#31384C"/>
<path fill-rule="evenodd" clip-rule="evenodd" d="M5.42875 6.36334L2.45105 3.61913C2.26585 3.44857 2.25704 3.16098 2.43123 2.97961C2.60542 2.79825 2.89912 2.7896 3.08435 2.96017L6.06202 5.70481C6.24725 5.87538 6.25606 6.16297 6.08187 6.34433C5.90768 6.52526 5.61352 6.5339 5.42875 6.36334Z" fill="#31384C"/>
<path fill-rule="evenodd" clip-rule="evenodd" d="M3.04831 16.7462L5.78123 13.7675C5.951 13.5827 6.24473 13.5672 6.43392 13.7334C6.62311 13.8997 6.63855 14.1873 6.46875 14.3725L3.73583 17.3512C3.56606 17.536 3.27236 17.5515 3.0836 17.3853C2.89441 17.2191 2.87854 16.9315 3.04831 16.7462Z" fill="#31384C"/>
<path fill-rule="evenodd" clip-rule="evenodd" d="M13.42 5.36791L16.1529 2.38924C16.3227 2.20441 16.6164 2.18887 16.8056 2.35512C16.9943 2.52138 17.0102 2.80897 16.8404 2.9942L14.1075 5.97288C13.9377 6.1577 13.644 6.17325 13.4548 6.00699C13.266 5.84074 13.2502 5.55315 13.42 5.36791Z" fill="#31384C"/>
<path fill-rule="evenodd" clip-rule="evenodd" d="M9.68007 19.5338L9.63333 15.53C9.63068 15.2812 9.83621 15.0753 10.0902 15.0727C10.3442 15.0696 10.5546 15.2709 10.5577 15.5196L10.6044 19.5234C10.6071 19.7726 10.4016 19.9781 10.1476 19.9812C9.89354 19.9842 9.68318 19.7829 9.68007 19.5338Z" fill="#31384C"/>
<path fill-rule="evenodd" clip-rule="evenodd" d="M9.45156 4.28439L9.40482 0.280594C9.40174 0.0314305 9.60724 -0.174124 9.86126 -0.177151C10.1153 -0.180179 10.3256 0.0210668 10.3287 0.27023L10.3755 4.27403C10.3786 4.52276 10.1726 4.72875 9.91858 4.73134C9.66456 4.73437 9.45421 4.53312 9.45156 4.28439Z" fill="#31384C"/>
<path fill-rule="evenodd" clip-rule="evenodd" d="M0.173463 9.44336L4.26293 9.45632C4.51694 9.45716 4.72422 9.66141 4.72332 9.91014C4.72288 10.1589 4.5143 10.3618 4.25982 10.361L0.170818 10.3484C-0.0836365 10.3476 -0.290909 10.1433 -0.290036 9.89459C-0.289136 9.64545 -0.0805547 9.44249 0.173463 9.44336Z" fill="#31384C"/>
<path fill-rule="evenodd" clip-rule="evenodd" d="M15.7496 9.44281L19.8391 9.45536C20.0931 9.4562 20.3004 9.66045 20.2995 9.90918C20.2986 10.1583 20.09 10.3613 19.836 10.3604L15.7466 10.3475C15.4925 10.3466 15.2853 10.1424 15.2861 9.89363C15.287 9.6449 15.4956 9.44197 15.7496 9.44281Z" fill="#31384C"/>
<path fill-rule="evenodd" clip-rule="evenodd" d="M9.89039 5.70697C7.52836 5.70697 5.60645 7.58884 5.60645 9.90165C5.60645 12.2149 7.52836 14.0968 9.89039 14.0968C12.2529 14.0968 14.1748 12.2149 14.1748 9.90165C14.1748 7.58884 12.2529 5.70697 9.89039 5.70697ZM13.2994 9.90173C13.2994 11.7421 11.77 13.2397 9.89045 13.2397C8.01086 13.2397 6.4819 11.7421 6.4819 9.90173C6.4819 8.06132 8.01086 6.56377 9.89045 6.56377C11.77 6.56377 13.2994 8.06132 13.2994 9.90173Z" fill="#31384C"/>
</g>
</g>
<defs>
<clipPath id="clip0_28_4686">
<rect width="20" height="20" fill="white"/>
</clipPath>
</defs>
</svg>
