<svg width="100" height="100" viewBox="0 0 100 100" fill="none" xmlns="http://www.w3.org/2000/svg">
<g clip-path="url(#clip0_28_4665)">
<rect opacity="0.0229128" x="0.5" y="0.5" width="99" height="99" stroke="#2B2B2B"/>
<path fill-rule="evenodd" clip-rule="evenodd" d="M74.9509 74.8611L64.0327 64.7974C63.3552 64.1736 63.3213 63.1175 63.96 62.4525C64.5987 61.7891 65.6773 61.7574 66.3564 62.3828L77.2745 72.4449C77.9521 73.0703 77.9844 74.1248 77.3457 74.7898C76.7086 75.4548 75.63 75.4865 74.9509 74.8611" fill="#FFFFFE"/>
<path fill-rule="evenodd" clip-rule="evenodd" d="M33.2381 36.6656L22.3199 26.6035C21.6408 25.9781 21.6085 24.9236 22.2472 24.2586C22.8859 23.5936 23.9628 23.5619 24.642 24.1873L35.5601 34.251C36.2393 34.8764 36.2716 35.9309 35.6329 36.5959C34.9942 37.2593 33.9156 37.291 33.2381 36.6656" fill="#FFFFFE"/>
<path fill-rule="evenodd" clip-rule="evenodd" d="M24.511 74.7361L34.5317 63.8143C35.1542 63.1366 36.2312 63.0796 36.9249 63.6892C37.6186 64.2988 37.6752 65.3533 37.0526 66.0325L27.0319 76.9544C26.4094 77.632 25.3325 77.689 24.6404 77.0794C23.9467 76.4699 23.8885 75.4154 24.511 74.7361" fill="#FFFFFE"/>
<path fill-rule="evenodd" clip-rule="evenodd" d="M62.54 33.0156L72.5607 22.0938C73.1832 21.4161 74.2601 21.3591 74.9539 21.9687C75.6459 22.5783 75.7041 23.6328 75.0816 24.312L65.0609 35.2338C64.4384 35.9115 63.3614 35.9685 62.6677 35.3589C61.9756 34.7493 61.9174 33.6948 62.54 33.0156" fill="#FFFFFE"/>
<path fill-rule="evenodd" clip-rule="evenodd" d="M48.8277 84.9571L48.6563 70.2765C48.6466 69.3645 49.4002 68.6092 50.3316 68.5997C51.263 68.5886 52.0343 69.3265 52.0456 70.2385L52.217 84.9191C52.2267 85.8327 51.4732 86.5864 50.5418 86.5975C49.6104 86.6086 48.8391 85.8707 48.8277 84.9571" fill="#FFFFFE"/>
<path fill-rule="evenodd" clip-rule="evenodd" d="M47.9899 29.0427L47.8185 14.3621C47.8072 13.4485 48.5607 12.6948 49.4921 12.6837C50.4235 12.6726 51.1948 13.4105 51.2061 14.3241L51.3775 29.0047C51.3889 29.9167 50.6337 30.672 49.7023 30.6815C48.7709 30.6926 47.9996 29.9547 47.9899 29.0427" fill="#FFFFFE"/>
<path fill-rule="evenodd" clip-rule="evenodd" d="M13.9695 47.9591L28.9642 48.0066C29.8956 48.0097 30.6556 48.7586 30.6523 49.6706C30.6507 50.5826 29.8859 51.3268 28.9528 51.3236L13.9598 51.2777C13.0268 51.2746 12.2668 50.5256 12.27 49.6136C12.2733 48.7001 13.0381 47.9559 13.9695 47.9591" fill="#FFFFFE"/>
<path fill-rule="evenodd" clip-rule="evenodd" d="M71.0813 47.957L86.076 48.003C87.0074 48.0061 87.7674 48.755 87.7641 49.667C87.7609 50.5806 86.9961 51.3248 86.0647 51.3216L71.07 51.2741C70.1386 51.271 69.3786 50.522 69.3818 49.61C69.3851 48.698 70.1499 47.9539 71.0813 47.957" fill="#FFFFFE"/>
<path fill-rule="evenodd" clip-rule="evenodd" d="M49.5974 34.2588C40.9366 34.2588 33.8896 41.159 33.8896 49.6393C33.8896 58.1212 40.9366 65.0214 49.5974 65.0214C58.2598 65.0214 65.3068 58.1212 65.3068 49.6393C65.3068 41.159 58.2598 34.2588 49.5974 34.2588V34.2588ZM62.0971 49.6396C62.0971 56.3877 56.4893 61.8787 49.5976 61.8787C42.7058 61.8787 37.0996 56.3877 37.0996 49.6396C37.0996 42.8914 42.7058 37.4004 49.5976 37.4004C56.4893 37.4004 62.0971 42.8914 62.0971 49.6396V49.6396Z" fill="#FFFFFE"/>
</g>
<defs>
<clipPath id="clip0_28_4665">
<rect width="100" height="100" fill="white"/>
</clipPath>
</defs>
</svg>
