<svg width="100" height="100" viewBox="0 0 100 100" fill="none" xmlns="http://www.w3.org/2000/svg">
<g clip-path="url(#clip0_28_5279)">
<rect opacity="0.0229128" x="0.5" y="0.5" width="99" height="99" stroke="#2B2B2B"/>
<g clip-path="url(#clip1_28_5279)">
<path fill-rule="evenodd" clip-rule="evenodd" d="M72.0357 22.266C70.9013 22.266 69.7683 22.3864 68.6607 22.6272C65.1197 14.3938 56.8582 8.90161 47.9183 8.90161C36.7632 8.90161 27.4856 16.7934 25.6391 27.7512C25.6123 27.7512 25.587 27.7512 25.5603 27.7512C18.2671 27.7512 12.332 33.711 12.332 41.0358C12.332 48.3592 18.2671 54.3176 25.5603 54.3176H72.0357C80.8334 54.3176 87.9914 47.1286 87.9914 38.2918C87.9914 29.455 80.8334 22.266 72.0357 22.266V22.266ZM84.7826 38.2921C84.7826 45.3593 79.0643 51.1077 72.0358 51.1077H25.5603C20.0363 51.1077 15.541 46.5899 15.541 41.0361C15.541 35.4809 20.0363 30.9617 25.5603 30.9617C25.9291 30.9617 26.333 30.9897 26.8284 31.0513L28.4596 31.2543L28.6229 29.6191C29.6306 19.6399 37.9258 12.1135 47.9184 12.1135C56.0926 12.1135 63.4309 17.3257 66.1767 25.0845L66.6961 26.5489L68.1752 26.0771C69.4306 25.6781 70.7283 25.4765 72.0358 25.4765C79.0643 25.4765 84.7826 31.2249 84.7826 38.2921V38.2921Z" fill="#31384C"/>
<path fill-rule="evenodd" clip-rule="evenodd" d="M25.7856 63.1561C27.1367 65.6103 28.4878 68.0645 29.8389 70.5187C30.7805 72.2267 33.4067 70.7021 32.4651 68.9913C31.114 66.5371 29.7615 64.0843 28.4104 61.6301C27.4702 59.9221 24.8426 61.4467 25.7856 63.1561" fill="#31384C"/>
<path fill-rule="evenodd" clip-rule="evenodd" d="M71.9824 63.1561C73.3335 65.6103 74.6846 68.0645 76.0371 70.5187C76.9773 72.2267 79.6035 70.7021 78.6619 68.9913C77.3108 66.5371 75.9597 64.0843 74.6072 61.6301C73.667 59.9221 71.0408 61.4467 71.9824 63.1561" fill="#31384C"/>
<path fill-rule="evenodd" clip-rule="evenodd" d="M68.5878 71.2391C69.9403 73.6933 71.2914 76.1475 72.6425 78.6003C73.5841 80.3083 76.2103 78.7837 75.2687 77.0743C73.9176 74.6201 72.5665 72.1659 71.214 69.7131C70.2738 68.0051 67.6462 69.5297 68.5878 71.2391" fill="#31384C"/>
<path fill-rule="evenodd" clip-rule="evenodd" d="M15.1808 62.0596C16.5333 64.5124 17.8844 66.9666 19.2355 69.4208C20.1771 71.1288 22.8033 69.6042 21.8617 67.8934C20.5106 65.4406 19.1581 62.9864 17.807 60.5322C16.8669 58.8242 14.2392 60.3488 15.1808 62.0596" fill="#31384C"/>
<path fill-rule="evenodd" clip-rule="evenodd" d="M25.7856 73.5393C27.1367 75.9921 28.4878 78.4463 29.8389 80.9005C30.7805 82.6085 33.4067 81.0839 32.4651 79.3731C31.114 76.9203 29.7615 74.4661 28.4104 72.0119C27.4702 70.3039 24.8426 71.8285 25.7856 73.5393" fill="#31384C"/>
<path fill-rule="evenodd" clip-rule="evenodd" d="M55.123 54.166L54.7993 54.3172H55.1948L55.123 54.166" fill="#31384C"/>
<path fill-rule="evenodd" clip-rule="evenodd" d="M40.4522 54.032L39.999 54.3176H40.6352L40.4522 54.032" fill="#31384C"/>
<path fill-rule="evenodd" clip-rule="evenodd" d="M61.5323 73.4416H56.6359C55.9871 73.4416 55.3847 73.7622 55.0245 74.2998C54.6642 74.8374 54.598 75.515 54.8485 76.1128L59.4451 87.051L40.7238 67.3026H45.4105C46.117 67.3026 46.7672 66.919 47.1078 66.303C47.4484 65.6856 47.4245 64.9338 47.0445 64.3402L42.4141 57.1008H39.5317L44.5069 64.882H39.5767C38.8013 64.882 38.1032 65.3384 37.7964 66.0454C37.491 66.7524 37.6359 67.5714 38.1665 68.1314L59.5422 90.6798C59.925 91.0844 60.4303 91.293 60.944 91.293C61.3085 91.293 61.6759 91.188 62.0052 90.9752C62.8046 90.46 63.1072 89.4898 62.7399 88.6148L57.3805 75.8608H62.3134C62.9805 75.8608 63.5927 75.5262 63.9502 74.9662C64.3063 74.4048 64.3499 73.7118 64.067 73.1154L56.5079 57.1008H53.8197L61.5323 73.4416" fill="#31384C"/>
</g>
</g>
<defs>
<clipPath id="clip0_28_5279">
<rect width="100" height="100" fill="white"/>
</clipPath>
<clipPath id="clip1_28_5279">
<rect width="76" height="84" fill="white" transform="translate(12 8)"/>
</clipPath>
</defs>
</svg>
