<svg width="100" height="100" viewBox="0 0 100 100" fill="none" xmlns="http://www.w3.org/2000/svg">
<g clip-path="url(#clip0_28_5223)">
<g clip-path="url(#clip1_28_5223)">
<rect opacity="0.0229128" x="0.5" y="0.5" width="99" height="99" stroke="#2B2B2B"/>
<path fill-rule="evenodd" clip-rule="evenodd" d="M82.7019 54.7434C81.6798 54.7434 80.6594 54.8525 79.6619 55.069C76.4712 47.6588 69.0285 42.7148 60.9748 42.7148C50.9244 42.7148 42.5677 49.8174 40.9035 59.6809C40.8806 59.6809 40.8577 59.6809 40.8331 59.6809C34.2617 59.6809 28.9155 65.0448 28.9155 71.6395C28.9155 78.2309 34.2617 83.5932 40.8331 83.5932H82.7019C90.6279 83.5932 97.0764 77.1223 97.0764 69.1683C97.0764 61.2144 90.6279 54.7434 82.7019 54.7434V54.7434ZM94.1856 69.1688C94.1856 75.529 89.0343 80.7041 82.7021 80.7041H40.8333C35.8556 80.7041 31.8066 76.6376 31.8066 71.6399C31.8066 66.639 35.8556 62.5709 40.8333 62.5709C41.1658 62.5709 41.5294 62.5969 41.9766 62.6523L43.4458 62.8346L43.5932 61.363C44.499 52.3802 51.9728 45.6064 60.9749 45.6064C68.3391 45.6064 74.9497 50.2964 77.4247 57.2802L77.8915 58.5988L79.2231 58.1739C80.3549 57.8157 81.5244 57.635 82.7021 57.635C89.0343 57.635 94.1856 62.8085 94.1856 69.1688V69.1688Z" fill="#31384C"/>
<path fill-rule="evenodd" clip-rule="evenodd" d="M23.7559 36.2821C24.3275 36.9202 25.3201 36.9788 25.9621 36.4123C26.6059 35.8442 26.6648 34.8577 26.0932 34.2195L16.9093 23.9393C16.3393 23.3012 15.3467 23.2426 14.703 23.8107C14.0609 24.3772 14.002 25.3637 14.572 26.0035L23.7559 36.2821" fill="#31384C"/>
<path fill-rule="evenodd" clip-rule="evenodd" d="M22.6584 61.7046L12.5327 71.0684C11.9037 71.6512 11.8677 72.6377 12.4524 73.2644C13.0388 73.8895 14.033 73.9253 14.662 73.3426L24.7877 63.9788C25.4167 63.3977 25.4527 62.4095 24.8679 61.7844C24.2816 61.1593 23.2873 61.1235 22.6584 61.7046" fill="#31384C"/>
<path fill-rule="evenodd" clip-rule="evenodd" d="M63.3201 25.9952C62.7337 25.3701 61.7395 25.3343 61.1105 25.9155L50.9848 35.2792C50.3559 35.862 50.3198 36.8485 50.9062 37.4752C51.491 38.1003 52.4852 38.1362 53.1142 37.5534L63.2398 28.1896C63.8688 27.6085 63.9048 26.6203 63.3201 25.9952" fill="#31384C"/>
<path fill-rule="evenodd" clip-rule="evenodd" d="M39.3883 32.0507C40.2449 32.1175 41 31.4744 41.0672 30.623L42.1466 16.9193C42.2137 16.0679 41.5667 15.3158 40.7101 15.2491C39.8535 15.1823 39.0967 15.8254 39.0296 16.6768L37.9518 30.3805C37.8847 31.2335 38.53 31.984 39.3883 32.0507" fill="#31384C"/>
<path fill-rule="evenodd" clip-rule="evenodd" d="M20.2866 48.1959V48.1959C20.3652 47.3461 19.7297 46.5859 18.8747 46.5061L5.10301 45.2331C4.24637 45.155 3.48146 45.785 3.40284 46.6364C3.32258 47.4878 3.95809 48.248 4.81309 48.3261L18.5848 49.5992C19.4415 49.6789 20.2064 49.0473 20.2866 48.1959" fill="#31384C"/>
<path fill-rule="evenodd" clip-rule="evenodd" d="M26.2112 48.696C26.7795 42.4026 32.3927 37.7419 38.725 38.3067C41.9238 38.5932 44.7001 40.1593 46.5936 42.4498C47.2832 41.7758 48.035 41.1344 48.8507 40.5451C46.4707 37.6865 42.9918 35.733 38.9887 35.3765C31.0316 34.6667 23.977 40.5239 23.2629 48.4323C22.801 53.5439 25.1072 58.2681 28.9383 61.1707C29.3707 60.4316 29.9538 59.6242 30.7286 58.833C27.6804 56.523 25.8443 52.7626 26.2112 48.696" fill="#31384C"/>
</g>
</g>
<defs>
<clipPath id="clip0_28_5223">
<rect width="100" height="100" fill="white"/>
</clipPath>
<clipPath id="clip1_28_5223">
<rect width="100" height="100" fill="white"/>
</clipPath>
</defs>
</svg>
